<svg width="468" height="141" xmlns="http://www.w3.org/2000/svg" xmlns:xlink="http://www.w3.org/1999/xlink" xml:space="preserve" overflow="hidden"><defs><linearGradient x1="96.7899" y1="53.9652" x2="18.7711" y2="140.099" gradientUnits="userSpaceOnUse" spreadMethod="pad" id="fill0"><stop offset="0" stop-color="#58C9ED" stop-opacity="1"/><stop offset="0.149313" stop-color="#58C9ED" stop-opacity="1"/><stop offset="0.469817" stop-color="#60C332" stop-opacity="1"/><stop offset="0.828086" stop-color="#CAE31C" stop-opacity="1"/><stop offset="1" stop-color="#CAE31C" stop-opacity="1"/></linearGradient></defs><g transform="translate(-3960 -2984)"><g><g><g><g><path d="M32.3743 101.817 42.5573 101.813 42.5573 110.492 53.3385 121.275 67.3916 121.275 67.3916 136.835 51.8345 136.835 51.8323 122.782 41.0467 111.998 32.3743 111.998ZM27.8863 134.37 27.8863 138.44 23.814 138.438 23.814 135.313 20.3375 131.835 13.8508 131.832 13.8486 124.407 21.2787 124.407 21.2831 130.891 24.7573 134.37ZM91.5134 93.3231 96.417 98.2289 100.824 98.2289 100.824 103.964 95.0888 103.964 95.0888 99.557 90.1831 94.6535 81.0401 94.6491 81.0401 84.1823 91.5134 84.1845ZM105.89 70.5888 105.89 81.0577 95.4231 81.0577 95.4187 71.9147 90.5152 67.0112 86.1086 67.0112 86.1086 61.2743 91.8499 61.2743 91.8499 65.6831 96.749 70.5866ZM10.4975 103.594 6.5439 99.6449 2.99049 99.6449 2.99049 95.0163 7.61696 95.0185 7.61696 98.5719 11.5728 102.525 18.939 102.525 18.939 110.969 10.4997 110.969ZM42.7662 75.7342 37.2118 70.1776 26.8551 70.1776 26.8551 58.3168 38.7137 58.3168 38.7181 68.6714 44.2769 74.2324 49.264 74.2324 49.2662 80.7279 42.7662 80.7279ZM61.956 70.3711 56.3994 64.8167 51.4123 64.8167 51.4079 58.3168 57.9078 58.3168 57.9078 63.3105 63.4622 68.8671 73.819 68.8671 73.819 80.7279 61.9603 80.7279ZM88.8 113.72 76.3235 113.716 76.3235 102.75 70.6702 97.0942 61.9955 97.0942 61.9955 86.9112 72.1764 86.9112 72.1764 95.588 77.8297 101.241 88.8 101.241ZM68.5724 102.69 68.5724 113.636 75.2812 120.345 87.0981 120.345 87.0981 133.673 73.7772 133.671 73.7772 121.854 67.064 115.141 56.1179 115.141 56.1179 104.201 49.6466 97.7209 43.2786 97.7209 43.2742 89.8445 51.1506 89.8445 51.1506 96.2169 57.6263 102.69ZM42.1264 159.868 39.3777 159.868 39.3777 157.117 42.1264 157.117ZM37.2426 150.292 30.4261 150.292 30.4261 143.478 37.2426 143.48ZM28.59 157.194 23.5347 157.194 23.5347 152.139 28.59 152.139ZM101.989 60.5663 106.633 60.5663 106.633 65.2125 101.989 65.2125ZM27.8929 97.6681 23.2511 97.6681 23.2511 93.0263 27.8929 93.0263ZM39.635 121.645 34.9953 121.645 34.9953 117.005 39.635 117.005ZM52.0609 153.274 42.5134 153.274 42.5134 143.722 52.0609 143.722ZM76.8468 148.839 67.6005 148.839 67.6005 139.594 76.8468 139.594ZM45.5962 138.387 33.3616 138.387 33.3616 126.15 45.5962 126.153ZM106.596 114.129 100.448 114.125 100.448 107.981 106.596 107.983ZM95.876 126.142 90.9351 126.139 90.9329 121.198 95.876 121.198ZM63.1302 148.577 57.103 148.577 57.103 142.55 63.1302 142.552ZM27.4202 119.252 22.3143 119.252 22.3143 114.149 27.4202 114.149ZM86.9551 77.7572 81.8537 77.7572 81.8493 72.6492 86.9595 72.6492Z" fill="url(#fill0)" fill-rule="nonzero" transform="matrix(1 0 0 -1.00642 3967.28 3159.58)"/><g><path d="M129.847 69.0364 123.327 69.0364 123.327 75.5583 129.847 75.5583ZM119.996 98.6818 116.464 98.6818 116.464 102.213 119.996 102.215ZM107.148 131.725 100.898 131.725 100.898 137.972 107.148 137.972ZM90.2513 148.801 86.6165 148.801 86.6165 152.432 90.2513 152.432ZM147.044 82.5464C138.774 90.4646 144.898 90.5063 145.061 95.3835 145.228 100.258 141.145 101.169 141.145 101.169 142.91 105.318 143.13 106.277 143.13 106.277 139.381 109.142 138.719 112.676 138.719 112.676 142.466 118.408 145.105 124.994 145.105 124.994 145.105 124.994 120.339 132.927 110.991 138.922 107.464 140.386 108.346 145.837 108.346 145.837 84.0834 176.938 47.7357 161.278 47.7357 161.278L47.7357 160.394C47.7357 160.394 50.4975 160.064 54.8843 158.835L60.9708 158.83 60.9708 156.838C63.2005 156 65.6171 154.98 68.1502 153.735L82.487 153.735 82.4826 144.643C84.0394 143.398 85.5896 142.057 87.1201 140.612L95.0383 140.612 95.0405 131.854C96.9953 129.319 98.8709 126.562 100.626 123.556 101.712 121.856 102.717 120.158 103.662 118.454L110.774 118.454 110.774 108.465 116.464 108.46 116.464 102.215 113.614 102.176C113.614 102.176 113.645 95.5044 113.647 92.2853L106.075 92.2831 106.075 84.5935 113.766 84.5935 113.766 92.083 121.467 92.083 121.467 77.5417 115.732 77.5417C117.146 57.2151 112.099 42.6057 112.099 42.6057 115.189 51.21 123.349 58.3784 134.53 62.3891 145.059 66.1602 155.319 74.6282 147.044 82.5464" fill="#41485B" fill-rule="nonzero" fill-opacity="1" transform="matrix(1 0 0 -1.00642 3967.28 3159.58)"/><path d="M190.457 142.567 213.108 142.567 213.108 75.7606 190.457 75.7606Z" fill="#35414D" fill-rule="nonzero" fill-opacity="1" transform="matrix(1 0 0 -1.00642 3967.28 3159.58)"/><path d="M0 0 19.8076-5.46644C18.4751-10.5437 16.3795-14.7809 13.5188-18.1826 10.6602-21.5843 7.10901-24.1504 2.86955-25.8831-1.37211-27.6159-6.76819-28.4822-13.3209-28.4822-21.2699-28.4822-27.7632-27.4268-32.8031-25.318-37.8429-23.2071-42.1901-19.4954-45.8513-14.1806-49.5102-8.86813-51.3375-2.06696-51.3375 6.22066-51.3375 17.2723-48.1205 25.7666-41.6844 31.7014-35.246 37.6362-26.1426 40.6047-14.3676 40.6047-5.1564 40.6047 2.08675 38.9028 7.35969 35.5011 12.6304 32.0972 16.5467 26.8726 19.1084 19.8252L-0.848772 15.7682C-1.54582 17.8044-2.27805 19.2909-3.04326 20.2342-4.30763 21.813-5.85345 23.029-7.68292 23.8778-9.5124 24.7287-11.5596 25.1553-13.82 25.1553-18.9412 25.1553-22.8663 23.2731-25.5951 19.5108-27.6555 16.7204-28.6867 12.3336-28.6867 6.35919-28.6867-1.04887-27.4554-6.12171-24.9948-8.86813-22.5342-11.6123-19.0754-12.9867-14.616-12.9867-10.2952-12.9867-7.02546-11.8784-4.81337-9.66193-2.60349-7.44325-0.998296-4.22187 0 0" fill="#35414D" fill-rule="nonzero" fill-opacity="1" transform="matrix(1 0 0 -1.00642 4245.29 3055.82)"/><path d="M0 0 22.6002 0 22.6002-50.3568 57.8726-50.3568 57.8726-66.8067 0-66.8067Z" fill="#35414D" fill-rule="nonzero" fill-opacity="1" transform="matrix(1 0 0 -1.00642 4276.07 3016.1)"/><path d="M0 0 9.52779 0C10.5591 0 12.5557 0.303447 15.5154 0.910341 17.0106 1.183 18.2354 1.88225 19.1831 3.00808 20.1308 4.12952 20.6036 5.42247 20.6036 6.88253 20.6036 9.03744 19.856 10.691 18.3607 11.8476 16.8633 13.002 14.0531 13.5804 9.92799 13.5804L0 13.5804ZM-22.7014-39.7384-22.7014 27.0683 14.9679 27.0683C21.9515 27.0683 27.2904 26.523 30.9824 25.428 34.6743 24.3351 37.6494 22.3077 39.9121 19.3436 42.1747 16.3817 43.305 12.7756 43.305 8.5229 43.305 4.81337 42.4408 1.61618 40.7103-1.07086 38.9797-3.7601 36.5983-5.9414 33.5705-7.61256 31.642-8.67462 28.9946-9.55638 25.6325-10.2534 28.3261-11.0758 30.2853-11.896 31.5167-12.7162 32.3479-13.2637 33.5529-14.4357 35.1317-16.23 36.7083-18.0221 37.7659-19.4074 38.2959-20.3815L49.242-39.7384 23.704-39.7384 11.6233-19.3239C10.0951-16.6786 8.7318-14.9657 7.5334-14.1741 5.90402-13.1406 4.05695-12.6238 1.99439-12.6238L0-12.6238 0-39.7384Z" fill="#35414D" fill-rule="nonzero" fill-opacity="1" transform="matrix(1 0 0 -1.00642 4367.23 3043.34)"/><path d="M0 0-260.294 0C-260.901 0-261.393 0.492552-261.393 1.09945-261.393 1.70634-260.901 2.19889-260.294 2.19889L0 2.19889C0.606894 2.19889 1.09945 1.70634 1.09945 1.09945 1.09945 0.492552 0.606894 0 0 0" fill="#35414D" fill-rule="nonzero" fill-opacity="1" transform="matrix(1 0 0 -1.00642 4417.63 3093.57)"/></g></g></g></g></g></g></svg>